<svg width="144" height="37" viewBox="0 0 144 37" fill="none" xmlns="http://www.w3.org/2000/svg">
<path d="M0 0L36.8603 37H0V0Z" fill="#C3986B"/>
<path d="M38.7848 24.3861H23.0547V23.1929C23.8288 23.1929 24.4001 23.1281 24.7687 22.9986C25.1373 22.8691 25.3769 22.6194 25.4875 22.2494C25.598 21.8794 25.6533 21.3336 25.6533 20.6121V10.0394C25.6533 9.33635 25.598 8.7906 25.4875 8.4021C25.3953 8.0136 25.1649 7.74535 24.7963 7.59735C24.4277 7.43085 23.8564 7.3476 23.0823 7.3476V6.15435H32.4817V7.3476C31.6892 7.3476 31.0994 7.43085 30.7124 7.59735C30.3254 7.74535 30.0674 8.0136 29.9383 8.4021C29.8278 8.7906 29.7725 9.3456 29.7725 10.0671V21.0561C29.7725 21.7406 29.9107 22.1846 30.1871 22.3881C30.482 22.5916 31.0349 22.6933 31.8459 22.6933H33.5322C34.3063 22.6933 34.9421 22.6286 35.4397 22.4991C35.9558 22.3696 36.3705 22.1476 36.6838 21.8331C37.0155 21.5186 37.292 21.0931 37.5131 20.5566C37.7343 20.0201 37.9462 19.3449 38.149 18.5309H39.5589L38.7848 24.3861Z" fill="#C3986B"/>
<path d="M44.4365 24.6914C43.4229 24.6914 42.5843 24.4509 41.9208 23.9699C41.2757 23.4704 40.9532 22.6564 40.9532 21.5279C40.9532 20.7509 41.1191 20.1034 41.4508 19.5854C41.7826 19.0489 42.2157 18.6049 42.7502 18.2534C43.2846 17.9019 43.8744 17.6151 44.5195 17.3931C45.1645 17.1526 45.8096 16.9491 46.4546 16.7826C47.0997 16.6161 47.6802 16.4588 48.1963 16.3109V14.9789C48.1963 13.7949 48.0765 13.0271 47.8369 12.6756C47.5973 12.3056 47.1457 12.1206 46.4823 12.1206C45.9294 12.1206 45.5515 12.2501 45.3488 12.5091C45.1645 12.7681 45.0724 13.2953 45.0724 14.0908C45.0724 14.7199 44.8881 15.1731 44.5195 15.4506C44.1508 15.7281 43.727 15.8669 43.2478 15.8669C42.8423 15.8669 42.4553 15.7188 42.0867 15.4228C41.7365 15.1083 41.5614 14.6366 41.5614 14.0076C41.5614 13.4526 41.7734 12.9438 42.1973 12.4813C42.6211 12.0003 43.2201 11.6211 43.9942 11.3436C44.7867 11.0476 45.7174 10.8996 46.7864 10.8996C48.5188 10.8996 49.8458 11.2326 50.7673 11.8986C51.6888 12.5646 52.1495 13.6653 52.1495 15.2008V21.2226C52.1495 21.7776 52.214 22.1384 52.343 22.3049C52.4905 22.4714 52.7116 22.5546 53.0065 22.5546C53.2277 22.5546 53.4488 22.4806 53.67 22.3326C53.9096 22.1846 54.1308 22.0089 54.3335 21.8054L54.9417 22.4159C54.4809 23.1004 53.9649 23.6461 53.3936 24.0531C52.8407 24.4601 52.0482 24.6636 51.0161 24.6636C50.0208 24.6636 49.3481 24.5064 48.998 24.1919C48.6662 23.8774 48.4451 23.3316 48.3345 22.5546L48.1963 21.9996V17.3931C47.4775 17.6151 46.8693 17.8556 46.3717 18.1146C45.8925 18.3551 45.5239 18.6789 45.2659 19.0859C45.0263 19.4929 44.9065 20.0479 44.9065 20.7509C44.9065 21.4354 45.0078 21.9349 45.2106 22.2494C45.4317 22.5639 45.7543 22.7211 46.1782 22.7211C46.5836 22.7211 46.9522 22.6286 47.284 22.4436C47.6157 22.2401 48.0304 21.8794 48.528 21.3614L48.6939 22.9154H48.2792C47.8369 23.2854 47.4406 23.6091 47.0905 23.8866C46.7587 24.1456 46.3901 24.3399 45.9846 24.4694C45.5976 24.6174 45.0816 24.6914 44.4365 24.6914Z" fill="#C3986B"/>
<path d="M71.4163 24.5804H68.7623L65.9149 16.7271L65.4449 15.3673L65.0026 14.0908C64.8183 13.5728 64.6524 13.1936 64.505 12.9531C64.376 12.7126 64.2009 12.5553 63.9797 12.4813C63.777 12.4073 63.4637 12.3703 63.0398 12.3703V11.2603H69.8958V12.3703C69.3798 12.3703 69.0296 12.4166 68.8453 12.5091C68.6794 12.5831 68.5965 12.7219 68.5965 12.9254C68.5965 13.1104 68.6241 13.2954 68.6794 13.4804C68.7347 13.6469 68.7992 13.8411 68.8729 14.0631L70.8357 19.2801L71.3333 20.8341H71.5269L72.0521 19.2524L74.0426 13.8689C74.0979 13.7209 74.1347 13.5914 74.1531 13.4804C74.19 13.3509 74.2084 13.2029 74.2084 13.0364C74.2084 12.7588 74.0426 12.5831 73.7108 12.5091C73.3791 12.4166 72.946 12.3703 72.4115 12.3703V11.2603H77.9682V12.3703C77.4706 12.3703 77.0651 12.4906 76.7518 12.7311C76.4385 12.9531 76.1528 13.3878 75.8948 14.0353L71.4163 24.5804ZM62.6251 24.5804H59.9988L55.6032 14.0908C55.4005 13.5913 55.2162 13.2213 55.0503 12.9809C54.8845 12.7219 54.6817 12.5553 54.4421 12.4813C54.2025 12.4073 53.88 12.3703 53.4745 12.3703V11.2603H60.9388V12.3703C60.4227 12.3703 60.0725 12.4166 59.8882 12.5091C59.7039 12.5831 59.6118 12.7219 59.6118 12.9254C59.6118 13.1474 59.6394 13.3416 59.6947 13.5081C59.75 13.6561 59.8145 13.8411 59.8882 14.0631L62.0722 19.2801L62.5698 20.8341H62.791L63.3715 19.2524L65.5002 14.5349L66.4954 17.1434H65.9425L62.6251 24.5804Z" fill="#C3986B"/>
<path d="M88.1051 24.3861H78.3187V23.1929C79.1112 23.1929 79.6825 23.1374 80.0327 23.0264C80.4013 22.8969 80.6317 22.6379 80.7239 22.2494C80.8344 21.8609 80.8897 21.2874 80.8897 20.5289V9.53985C80.8897 8.63335 80.7054 8.04135 80.3368 7.76385C79.9682 7.48635 79.2955 7.3476 78.3187 7.3476V6.15435H87.2481C88.1881 6.15435 89.0911 6.2191 89.9573 6.3486C90.842 6.4781 91.6253 6.7186 92.3072 7.0701C92.9891 7.4216 93.5236 7.9211 93.9106 8.5686C94.3161 9.1976 94.5188 10.0208 94.5188 11.0383C94.5188 12.1483 94.3161 13.0826 93.9106 13.8411C93.5051 14.5811 92.9522 15.1731 92.2519 15.6171C91.57 16.0611 90.7775 16.3756 89.8744 16.5606C88.9898 16.7456 88.059 16.8381 87.0822 16.8381C86.7505 16.8381 86.4003 16.8011 86.0317 16.7271C85.6631 16.6531 85.3222 16.5791 85.0089 16.5051V20.6121C85.0089 21.3521 85.0641 21.9071 85.1747 22.2771C85.3037 22.6471 85.5894 22.8969 86.0317 23.0264C86.4741 23.1374 87.1652 23.1929 88.1051 23.1929V24.3861ZM86.474 15.2286C87.3218 15.2286 88.0222 15.1269 88.5751 14.9234C89.1464 14.7199 89.5703 14.3314 89.8468 13.7579C90.1232 13.1659 90.2614 12.3241 90.2614 11.2326C90.2614 9.9561 89.9666 9.02185 89.3768 8.42985C88.787 7.81935 87.7826 7.5141 86.3635 7.5141C86.1239 7.5141 85.9027 7.52335 85.7 7.54185C85.5157 7.54185 85.2853 7.56035 85.0089 7.59735V15.0899C85.2116 15.1084 85.4051 15.1361 85.5894 15.1731C85.7737 15.2101 86.0686 15.2286 86.474 15.2286Z" fill="#C3986B"/>
<path d="M104.511 24.3861H95.8302V23.2761C96.4384 23.2761 96.8807 23.2299 97.1572 23.1374C97.4521 23.0264 97.6456 22.8321 97.7377 22.5546C97.8299 22.2771 97.876 21.8794 97.876 21.3614V14.5626C97.876 14.0631 97.8022 13.6839 97.6548 13.4249C97.5074 13.1474 97.194 13.0086 96.7149 13.0086C96.4384 13.0086 96.2265 13.0178 96.079 13.0364C95.9316 13.0549 95.8579 13.0641 95.8579 13.0641V11.8708L100.198 11.0106H101.774V13.8966H101.885C102.382 13.2491 102.788 12.7034 103.101 12.2594C103.414 11.7969 103.746 11.4453 104.096 11.2048C104.465 10.9643 104.935 10.8441 105.506 10.8441C106.225 10.8441 106.759 11.0476 107.109 11.4546C107.46 11.8616 107.635 12.4166 107.635 13.1196C107.635 13.9151 107.46 14.4886 107.109 14.8401C106.759 15.1916 106.372 15.3673 105.948 15.3673C105.543 15.3673 105.193 15.2749 104.898 15.0899C104.621 14.8864 104.382 14.6921 104.179 14.5071C103.976 14.3036 103.801 14.2018 103.654 14.2018C103.359 14.2018 103.055 14.3221 102.742 14.5626C102.447 14.7846 102.143 15.0806 101.829 15.4506V21.1671C101.829 21.7591 101.912 22.2124 102.078 22.5269C102.262 22.8229 102.548 23.0264 102.935 23.1374C103.34 23.2299 103.866 23.2761 104.511 23.2761V24.3861Z" fill="#C3986B"/>
<path d="M116.377 24.3861H108.194V23.2761C108.802 23.2761 109.253 23.2299 109.548 23.1374C109.843 23.0264 110.037 22.8321 110.129 22.5546C110.239 22.2586 110.295 21.8516 110.295 21.3336V14.2573C110.295 13.6283 110.166 13.2491 109.908 13.1196C109.65 12.9716 109.309 12.8976 108.885 12.8976C108.7 12.8976 108.535 12.9068 108.387 12.9254C108.24 12.9438 108.166 12.9531 108.166 12.9531V11.7876L112.313 11.0106H114.248V21.2504C114.248 21.7869 114.294 22.2031 114.386 22.4991C114.497 22.7951 114.7 22.9986 114.994 23.1096C115.308 23.2206 115.768 23.2761 116.377 23.2761V24.3861ZM112.175 9.26235C111.493 9.26235 110.949 9.0681 110.544 8.6796C110.156 8.2726 109.963 7.74535 109.963 7.09785C109.963 6.45035 110.156 5.93235 110.544 5.54385C110.931 5.13685 111.474 4.93335 112.175 4.93335C112.912 4.93335 113.465 5.1276 113.833 5.5161C114.22 5.9046 114.414 6.4226 114.414 7.0701C114.414 7.7361 114.22 8.2726 113.833 8.6796C113.465 9.0681 112.912 9.26235 112.175 9.26235Z" fill="#C3986B"/>
<path d="M129.317 19.6964L130.036 20.1404C129.668 20.9544 129.234 21.7129 128.737 22.4159C128.258 23.1004 127.631 23.6554 126.857 24.0809C126.101 24.4879 125.106 24.6914 123.871 24.6914C122.6 24.6914 121.494 24.4416 120.554 23.9421C119.632 23.4426 118.914 22.7119 118.398 21.7499C117.9 20.7694 117.651 19.5576 117.651 18.1146C117.651 16.7086 117.9 15.4691 118.398 14.3961C118.914 13.3046 119.688 12.4536 120.72 11.8431C121.77 11.2141 123.088 10.8996 124.673 10.8996C126.258 10.8996 127.493 11.1956 128.377 11.7876C129.281 12.3611 129.732 13.0826 129.732 13.9521C129.732 14.5626 129.529 15.0158 129.124 15.3118C128.737 15.6078 128.276 15.7559 127.742 15.7559C127.226 15.7559 126.839 15.6356 126.581 15.3951C126.341 15.1546 126.157 14.8586 126.028 14.5071C125.899 14.1556 125.77 13.8134 125.641 13.4804C125.512 13.1289 125.318 12.8328 125.06 12.5923C124.82 12.3518 124.452 12.2316 123.954 12.2316C123.106 12.2316 122.498 12.6201 122.13 13.3971C121.779 14.1741 121.604 15.3026 121.604 16.7826C121.604 18.3736 121.853 19.5946 122.351 20.4456C122.867 21.2966 123.862 21.7221 125.336 21.7221C126.276 21.7221 127.041 21.5556 127.631 21.2226C128.239 20.8711 128.801 20.3624 129.317 19.6964Z" fill="#C3986B"/>
<path d="M137.642 24.6914C136.296 24.6914 135.154 24.4324 134.214 23.9144C133.292 23.3964 132.583 22.6286 132.085 21.6111C131.606 20.5936 131.366 19.3541 131.366 17.8926C131.366 16.3016 131.67 14.9973 132.279 13.9798C132.887 12.9438 133.689 12.1761 134.684 11.6766C135.697 11.1771 136.803 10.9274 138.001 10.9274C139.752 10.9274 141.153 11.4638 142.203 12.5368C143.272 13.5913 143.816 15.1639 143.834 17.2544H135.098L135.071 15.9501H139.494C139.494 15.1916 139.439 14.5256 139.328 13.9521C139.218 13.3786 139.024 12.9346 138.748 12.6201C138.49 12.3056 138.112 12.1484 137.614 12.1484C136.766 12.1484 136.186 12.5183 135.873 13.2583C135.559 13.9983 135.403 15.1916 135.403 16.8381C135.403 18.0591 135.541 19.0211 135.817 19.7241C136.094 20.4271 136.508 20.9359 137.061 21.2504C137.614 21.5464 138.296 21.6944 139.107 21.6944C139.826 21.6944 140.434 21.6204 140.932 21.4724C141.448 21.3244 141.89 21.1116 142.259 20.8341C142.646 20.5381 142.987 20.2051 143.281 19.8351L144 20.3346C143.705 20.8711 143.392 21.3984 143.06 21.9164C142.747 22.4344 142.36 22.9061 141.899 23.3316C141.457 23.7386 140.895 24.0716 140.213 24.3306C139.531 24.5711 138.674 24.6914 137.642 24.6914Z" fill="#C3986B"/>
</svg>
